<?xml version="1.0" encoding="UTF-8"?>
<svg xmlns="http://www.w3.org/2000/svg" xmlns:xlink="http://www.w3.org/1999/xlink" version="1.1" viewBox="0 0 460 208">
  <defs>
    <style>
      .cls-1 {
        fill: none;
      }

      .cls-2 {
        clip-path: url(#clippath);
      }
    </style>
    <clipPath id="clippath">
      <rect class="cls-1" x="40" y="40" width="128" height="128"/>
    </clipPath>
  </defs>
  <!-- Generator: Adobe Illustrator 28.6.0, SVG Export Plug-In . SVG Version: 1.2.0 Build 709)  -->
  <g>
    <g id="Layer_1">
      <path d="M460,208H0V0h460v208ZM8,200h444V8H8v192Z"/>
      <g class="cls-2">
        <g>
          <path d="M168,40h-32v32h32v-32Z"/>
          <path d="M72,40h-32v128h32V40Z"/>
          <path d="M122.7,117.3c-12.1-12.1-18.8-28.2-18.8-45.3h-31.9c0,53,43,96,96,96v-31.9c-17.1,0-33.2-6.7-45.3-18.8Z"/>
        </g>
      </g>
      <path d="M207.7,145v-78.7h13.5v39.7l35.1-39.7h16.9l-29.8,32.8,31.8,45.9h-16.4l-24.6-35.8-13,14.4v21.3h-13.5,0ZM281.6,145v-56.7h13.1v56.7h-13.1ZM281.1,79.9v-13.5h14v13.5h-14ZM323.3,145l-20.8-56.7h13.8l14.7,44.7,14.7-44.7h13.8l-20.8,56.7h-15.4ZM389.9,146.4c-16.8,0-27.5-12.6-27.5-29.7s10.7-29.8,27.5-29.8,27,8.5,26.1,33h-40.6c.9,9.4,5.3,16.5,14.6,16.5s10.6-3.4,12.4-8.6h12.9c-2.2,10.7-10.8,18.6-25.4,18.6ZM375.6,111.2h27.6c-.8-10-5.5-14.4-13.3-14.4s-13,6.3-14.3,14.4h0Z"/>
    </g>
  </g>
</svg>